<mxfile host="app.diagrams.net" modified="2023-04-08T22:40:35.030Z" agent="Mozilla/5.0 (Windows NT 10.0; Win64; x64) AppleWebKit/537.36 (KHTML, like Gecko) Chrome/112.0.0.0 Safari/537.36 Config/96.2.8981.82" etag="XqjTamsVnFhWCNnE-N6u" version="21.1.4" type="github">
  <diagram name="Page-1" id="MUYJiYZP9nKNH3J43aKX">
    <mxGraphModel dx="1434" dy="796" grid="1" gridSize="10" guides="1" tooltips="1" connect="1" arrows="1" fold="1" page="1" pageScale="1" pageWidth="850" pageHeight="1100" math="0" shadow="0">
      <root>
        <mxCell id="0" />
        <mxCell id="1" parent="0" />
        <mxCell id="jy5N7lRZQxkDlx1HYXgy-20" value="" style="edgeStyle=orthogonalEdgeStyle;rounded=0;orthogonalLoop=1;jettySize=auto;html=1;labelBackgroundColor=none;strokeColor=#788AA3;fontColor=default;" edge="1" parent="1" source="jy5N7lRZQxkDlx1HYXgy-1" target="jy5N7lRZQxkDlx1HYXgy-3">
          <mxGeometry relative="1" as="geometry" />
        </mxCell>
        <mxCell id="jy5N7lRZQxkDlx1HYXgy-1" value="Start" style="ellipse;whiteSpace=wrap;html=1;labelBackgroundColor=none;fillColor=#B2C9AB;strokeColor=#788AA3;fontColor=#46495D;" vertex="1" parent="1">
          <mxGeometry x="340" y="10" width="120" height="80" as="geometry" />
        </mxCell>
        <mxCell id="jy5N7lRZQxkDlx1HYXgy-2" value="Initialize sunny_count = 0, cloudy_count = 0, rainy_count = 0, invalid_count = 0" style="rounded=0;whiteSpace=wrap;html=1;labelBackgroundColor=none;fillColor=#B2C9AB;strokeColor=#788AA3;fontColor=#46495D;" vertex="1" parent="1">
          <mxGeometry x="260" y="120" width="290" height="60" as="geometry" />
        </mxCell>
        <mxCell id="jy5N7lRZQxkDlx1HYXgy-21" value="" style="edgeStyle=orthogonalEdgeStyle;rounded=0;orthogonalLoop=1;jettySize=auto;html=1;labelBackgroundColor=none;strokeColor=#788AA3;fontColor=default;" edge="1" parent="1" source="jy5N7lRZQxkDlx1HYXgy-3" target="jy5N7lRZQxkDlx1HYXgy-5">
          <mxGeometry relative="1" as="geometry" />
        </mxCell>
        <mxCell id="jy5N7lRZQxkDlx1HYXgy-3" value="DO" style="rhombus;whiteSpace=wrap;html=1;labelBackgroundColor=none;fillColor=#B2C9AB;strokeColor=#788AA3;fontColor=#46495D;" vertex="1" parent="1">
          <mxGeometry x="330" y="200" width="140" height="140" as="geometry" />
        </mxCell>
        <mxCell id="jy5N7lRZQxkDlx1HYXgy-4" value="Input letter" style="rounded=0;whiteSpace=wrap;html=1;labelBackgroundColor=none;fillColor=#B2C9AB;strokeColor=#788AA3;fontColor=#46495D;" vertex="1" parent="1">
          <mxGeometry x="340" y="360" width="120" height="60" as="geometry" />
        </mxCell>
        <mxCell id="jy5N7lRZQxkDlx1HYXgy-23" value="" style="edgeStyle=orthogonalEdgeStyle;rounded=0;orthogonalLoop=1;jettySize=auto;html=1;entryX=0.5;entryY=0;entryDx=0;entryDy=0;labelBackgroundColor=none;strokeColor=#788AA3;fontColor=default;" edge="1" parent="1" source="jy5N7lRZQxkDlx1HYXgy-5" target="jy5N7lRZQxkDlx1HYXgy-6">
          <mxGeometry relative="1" as="geometry">
            <mxPoint x="260" y="480" as="targetPoint" />
          </mxGeometry>
        </mxCell>
        <mxCell id="jy5N7lRZQxkDlx1HYXgy-26" value="" style="edgeStyle=orthogonalEdgeStyle;rounded=0;orthogonalLoop=1;jettySize=auto;html=1;labelBackgroundColor=none;strokeColor=#788AA3;fontColor=default;" edge="1" parent="1" source="jy5N7lRZQxkDlx1HYXgy-5">
          <mxGeometry relative="1" as="geometry">
            <mxPoint x="420" y="590" as="targetPoint" />
            <Array as="points">
              <mxPoint x="400" y="550" />
              <mxPoint x="420" y="550" />
            </Array>
          </mxGeometry>
        </mxCell>
        <mxCell id="jy5N7lRZQxkDlx1HYXgy-28" value="" style="edgeStyle=orthogonalEdgeStyle;rounded=0;orthogonalLoop=1;jettySize=auto;html=1;entryX=0.5;entryY=0;entryDx=0;entryDy=0;labelBackgroundColor=none;strokeColor=#788AA3;fontColor=default;" edge="1" parent="1" source="jy5N7lRZQxkDlx1HYXgy-5" target="jy5N7lRZQxkDlx1HYXgy-10">
          <mxGeometry relative="1" as="geometry">
            <mxPoint x="540" y="480" as="targetPoint" />
          </mxGeometry>
        </mxCell>
        <mxCell id="jy5N7lRZQxkDlx1HYXgy-5" value="Convert letter to uppercase" style="rounded=0;whiteSpace=wrap;html=1;labelBackgroundColor=none;fillColor=#B2C9AB;strokeColor=#788AA3;fontColor=#46495D;" vertex="1" parent="1">
          <mxGeometry x="340" y="450" width="120" height="60" as="geometry" />
        </mxCell>
        <mxCell id="jy5N7lRZQxkDlx1HYXgy-29" value="" style="edgeStyle=orthogonalEdgeStyle;rounded=0;orthogonalLoop=1;jettySize=auto;html=1;labelBackgroundColor=none;strokeColor=#788AA3;fontColor=default;" edge="1" parent="1" source="jy5N7lRZQxkDlx1HYXgy-6" target="jy5N7lRZQxkDlx1HYXgy-7">
          <mxGeometry relative="1" as="geometry" />
        </mxCell>
        <mxCell id="jy5N7lRZQxkDlx1HYXgy-31" value="" style="edgeStyle=orthogonalEdgeStyle;rounded=0;orthogonalLoop=1;jettySize=auto;html=1;entryX=0;entryY=0.5;entryDx=0;entryDy=0;labelBackgroundColor=none;strokeColor=#788AA3;fontColor=default;" edge="1" parent="1" source="jy5N7lRZQxkDlx1HYXgy-6" target="jy5N7lRZQxkDlx1HYXgy-8">
          <mxGeometry relative="1" as="geometry">
            <mxPoint x="340" y="620" as="targetPoint" />
          </mxGeometry>
        </mxCell>
        <mxCell id="jy5N7lRZQxkDlx1HYXgy-6" value="IF letter &amp;gt;= A AND letter &amp;lt;= E" style="rhombus;whiteSpace=wrap;html=1;labelBackgroundColor=none;fillColor=#B2C9AB;strokeColor=#788AA3;fontColor=#46495D;" vertex="1" parent="1">
          <mxGeometry x="110" y="570" width="180" height="150" as="geometry" />
        </mxCell>
        <mxCell id="jy5N7lRZQxkDlx1HYXgy-43" value="" style="edgeStyle=orthogonalEdgeStyle;rounded=0;orthogonalLoop=1;jettySize=auto;html=1;entryX=0;entryY=0.75;entryDx=0;entryDy=0;labelBackgroundColor=none;strokeColor=#788AA3;fontColor=default;" edge="1" parent="1" source="jy5N7lRZQxkDlx1HYXgy-7" target="jy5N7lRZQxkDlx1HYXgy-12">
          <mxGeometry relative="1" as="geometry">
            <mxPoint x="200" y="940" as="targetPoint" />
            <Array as="points">
              <mxPoint x="200" y="935" />
            </Array>
          </mxGeometry>
        </mxCell>
        <mxCell id="jy5N7lRZQxkDlx1HYXgy-7" value="DISPLAY sunny and increment sunny_count" style="rounded=0;whiteSpace=wrap;html=1;labelBackgroundColor=none;fillColor=#B2C9AB;strokeColor=#788AA3;fontColor=#46495D;" vertex="1" parent="1">
          <mxGeometry x="140" y="800" width="120" height="60" as="geometry" />
        </mxCell>
        <mxCell id="jy5N7lRZQxkDlx1HYXgy-33" value="" style="edgeStyle=orthogonalEdgeStyle;rounded=0;orthogonalLoop=1;jettySize=auto;html=1;labelBackgroundColor=none;strokeColor=#788AA3;fontColor=default;" edge="1" parent="1" source="jy5N7lRZQxkDlx1HYXgy-8" target="jy5N7lRZQxkDlx1HYXgy-10">
          <mxGeometry relative="1" as="geometry" />
        </mxCell>
        <mxCell id="jy5N7lRZQxkDlx1HYXgy-35" value="" style="edgeStyle=orthogonalEdgeStyle;rounded=0;orthogonalLoop=1;jettySize=auto;html=1;labelBackgroundColor=none;strokeColor=#788AA3;fontColor=default;" edge="1" parent="1" source="jy5N7lRZQxkDlx1HYXgy-8" target="jy5N7lRZQxkDlx1HYXgy-9">
          <mxGeometry relative="1" as="geometry" />
        </mxCell>
        <mxCell id="jy5N7lRZQxkDlx1HYXgy-8" value="IF letter &amp;gt;= J AND letter &amp;lt;= P" style="rhombus;whiteSpace=wrap;html=1;labelBackgroundColor=none;fillColor=#B2C9AB;strokeColor=#788AA3;fontColor=#46495D;" vertex="1" parent="1">
          <mxGeometry x="320" y="570" width="190" height="150" as="geometry" />
        </mxCell>
        <mxCell id="jy5N7lRZQxkDlx1HYXgy-44" value="" style="edgeStyle=orthogonalEdgeStyle;rounded=0;orthogonalLoop=1;jettySize=auto;html=1;labelBackgroundColor=none;strokeColor=#788AA3;fontColor=default;" edge="1" parent="1" source="jy5N7lRZQxkDlx1HYXgy-9" target="jy5N7lRZQxkDlx1HYXgy-13">
          <mxGeometry relative="1" as="geometry" />
        </mxCell>
        <mxCell id="jy5N7lRZQxkDlx1HYXgy-54" value="" style="edgeStyle=orthogonalEdgeStyle;rounded=0;orthogonalLoop=1;jettySize=auto;html=1;labelBackgroundColor=none;strokeColor=#788AA3;fontColor=default;" edge="1" parent="1" source="jy5N7lRZQxkDlx1HYXgy-9" target="jy5N7lRZQxkDlx1HYXgy-7">
          <mxGeometry relative="1" as="geometry" />
        </mxCell>
        <mxCell id="jy5N7lRZQxkDlx1HYXgy-9" value="DISPLAY cloudy and increment cloudy_count" style="rounded=0;whiteSpace=wrap;html=1;labelBackgroundColor=none;fillColor=#B2C9AB;strokeColor=#788AA3;fontColor=#46495D;" vertex="1" parent="1">
          <mxGeometry x="345" y="800" width="120" height="60" as="geometry" />
        </mxCell>
        <mxCell id="jy5N7lRZQxkDlx1HYXgy-36" value="" style="edgeStyle=orthogonalEdgeStyle;rounded=0;orthogonalLoop=1;jettySize=auto;html=1;labelBackgroundColor=none;strokeColor=#788AA3;fontColor=default;" edge="1" parent="1" source="jy5N7lRZQxkDlx1HYXgy-10" target="jy5N7lRZQxkDlx1HYXgy-11">
          <mxGeometry relative="1" as="geometry" />
        </mxCell>
        <mxCell id="jy5N7lRZQxkDlx1HYXgy-41" value="" style="edgeStyle=orthogonalEdgeStyle;rounded=0;orthogonalLoop=1;jettySize=auto;html=1;entryX=1;entryY=0.75;entryDx=0;entryDy=0;exitX=0.968;exitY=0.473;exitDx=0;exitDy=0;exitPerimeter=0;labelBackgroundColor=none;strokeColor=#788AA3;fontColor=default;" edge="1" parent="1" source="jy5N7lRZQxkDlx1HYXgy-10" target="jy5N7lRZQxkDlx1HYXgy-39">
          <mxGeometry relative="1" as="geometry">
            <mxPoint x="730" y="645" as="sourcePoint" />
            <mxPoint x="800" y="645" as="targetPoint" />
            <Array as="points">
              <mxPoint x="714" y="645" />
              <mxPoint x="780" y="645" />
              <mxPoint x="780" y="935" />
            </Array>
          </mxGeometry>
        </mxCell>
        <mxCell id="jy5N7lRZQxkDlx1HYXgy-10" value="IF letter &amp;gt;= Q AND letter &amp;lt;= X" style="rhombus;whiteSpace=wrap;html=1;labelBackgroundColor=none;fillColor=#B2C9AB;strokeColor=#788AA3;fontColor=#46495D;" vertex="1" parent="1">
          <mxGeometry x="530" y="570" width="190" height="150" as="geometry" />
        </mxCell>
        <mxCell id="jy5N7lRZQxkDlx1HYXgy-11" value="DISPLAY rainy and increment rainy_count" style="rounded=0;whiteSpace=wrap;html=1;labelBackgroundColor=none;fillColor=#B2C9AB;strokeColor=#788AA3;fontColor=#46495D;" vertex="1" parent="1">
          <mxGeometry x="565" y="800" width="120" height="60" as="geometry" />
        </mxCell>
        <mxCell id="jy5N7lRZQxkDlx1HYXgy-12" value="INPUT continue_flag" style="rounded=0;whiteSpace=wrap;html=1;labelBackgroundColor=none;fillColor=#B2C9AB;strokeColor=#788AA3;fontColor=#46495D;" vertex="1" parent="1">
          <mxGeometry x="345" y="890" width="120" height="60" as="geometry" />
        </mxCell>
        <mxCell id="jy5N7lRZQxkDlx1HYXgy-56" value="" style="edgeStyle=orthogonalEdgeStyle;rounded=0;orthogonalLoop=1;jettySize=auto;html=1;entryX=0;entryY=0.5;entryDx=0;entryDy=0;labelBackgroundColor=none;strokeColor=#788AA3;fontColor=default;" edge="1" parent="1" source="jy5N7lRZQxkDlx1HYXgy-13" target="jy5N7lRZQxkDlx1HYXgy-6">
          <mxGeometry relative="1" as="geometry">
            <mxPoint x="40" y="630" as="targetPoint" />
          </mxGeometry>
        </mxCell>
        <mxCell id="jy5N7lRZQxkDlx1HYXgy-58" value="" style="edgeStyle=orthogonalEdgeStyle;rounded=0;orthogonalLoop=1;jettySize=auto;html=1;entryX=0.417;entryY=0;entryDx=0;entryDy=0;entryPerimeter=0;labelBackgroundColor=none;strokeColor=#788AA3;fontColor=default;" edge="1" parent="1" source="jy5N7lRZQxkDlx1HYXgy-13" target="jy5N7lRZQxkDlx1HYXgy-14">
          <mxGeometry relative="1" as="geometry">
            <mxPoint x="130" y="1100" as="targetPoint" />
            <Array as="points">
              <mxPoint x="410" y="1100" />
              <mxPoint x="130" y="1100" />
            </Array>
          </mxGeometry>
        </mxCell>
        <mxCell id="jy5N7lRZQxkDlx1HYXgy-13" value="WHILE continue-flag" style="rhombus;whiteSpace=wrap;html=1;labelBackgroundColor=none;fillColor=#B2C9AB;strokeColor=#788AA3;fontColor=#46495D;" vertex="1" parent="1">
          <mxGeometry x="340" y="970" width="140" height="120" as="geometry" />
        </mxCell>
        <mxCell id="jy5N7lRZQxkDlx1HYXgy-59" value="" style="edgeStyle=orthogonalEdgeStyle;rounded=0;orthogonalLoop=1;jettySize=auto;html=1;labelBackgroundColor=none;strokeColor=#788AA3;fontColor=default;" edge="1" parent="1" source="jy5N7lRZQxkDlx1HYXgy-14" target="jy5N7lRZQxkDlx1HYXgy-15">
          <mxGeometry relative="1" as="geometry" />
        </mxCell>
        <mxCell id="jy5N7lRZQxkDlx1HYXgy-14" value="DISPLAY Summary" style="rounded=0;whiteSpace=wrap;html=1;labelBackgroundColor=none;fillColor=#B2C9AB;strokeColor=#788AA3;fontColor=#46495D;" vertex="1" parent="1">
          <mxGeometry x="80" y="1120" width="120" height="60" as="geometry" />
        </mxCell>
        <mxCell id="jy5N7lRZQxkDlx1HYXgy-60" value="" style="edgeStyle=orthogonalEdgeStyle;rounded=0;orthogonalLoop=1;jettySize=auto;html=1;labelBackgroundColor=none;strokeColor=#788AA3;fontColor=default;" edge="1" parent="1" source="jy5N7lRZQxkDlx1HYXgy-15" target="jy5N7lRZQxkDlx1HYXgy-16">
          <mxGeometry relative="1" as="geometry" />
        </mxCell>
        <mxCell id="jy5N7lRZQxkDlx1HYXgy-15" value="DISPLAY Sunny, sunny_count" style="rounded=0;whiteSpace=wrap;html=1;labelBackgroundColor=none;fillColor=#B2C9AB;strokeColor=#788AA3;fontColor=#46495D;" vertex="1" parent="1">
          <mxGeometry x="290" y="1120" width="120" height="60" as="geometry" />
        </mxCell>
        <mxCell id="jy5N7lRZQxkDlx1HYXgy-61" value="" style="edgeStyle=orthogonalEdgeStyle;rounded=0;orthogonalLoop=1;jettySize=auto;html=1;labelBackgroundColor=none;strokeColor=#788AA3;fontColor=default;" edge="1" parent="1" source="jy5N7lRZQxkDlx1HYXgy-16" target="jy5N7lRZQxkDlx1HYXgy-17">
          <mxGeometry relative="1" as="geometry" />
        </mxCell>
        <mxCell id="jy5N7lRZQxkDlx1HYXgy-16" value="DISPLAY Cloudy, cloudy_count" style="rounded=0;whiteSpace=wrap;html=1;labelBackgroundColor=none;fillColor=#B2C9AB;strokeColor=#788AA3;fontColor=#46495D;" vertex="1" parent="1">
          <mxGeometry x="490" y="1120" width="120" height="60" as="geometry" />
        </mxCell>
        <mxCell id="jy5N7lRZQxkDlx1HYXgy-62" value="" style="edgeStyle=orthogonalEdgeStyle;rounded=0;orthogonalLoop=1;jettySize=auto;html=1;entryX=1;entryY=0.75;entryDx=0;entryDy=0;labelBackgroundColor=none;strokeColor=#788AA3;fontColor=default;" edge="1" parent="1" source="jy5N7lRZQxkDlx1HYXgy-17" target="jy5N7lRZQxkDlx1HYXgy-18">
          <mxGeometry relative="1" as="geometry">
            <mxPoint x="810" y="1260" as="targetPoint" />
            <Array as="points">
              <mxPoint x="730" y="1255" />
            </Array>
          </mxGeometry>
        </mxCell>
        <mxCell id="jy5N7lRZQxkDlx1HYXgy-17" value="DISPLAY Rainy, rainy_count" style="rounded=0;whiteSpace=wrap;html=1;labelBackgroundColor=none;fillColor=#B2C9AB;strokeColor=#788AA3;fontColor=#46495D;" vertex="1" parent="1">
          <mxGeometry x="660" y="1120" width="120" height="60" as="geometry" />
        </mxCell>
        <mxCell id="jy5N7lRZQxkDlx1HYXgy-64" value="" style="edgeStyle=orthogonalEdgeStyle;rounded=0;orthogonalLoop=1;jettySize=auto;html=1;labelBackgroundColor=none;strokeColor=#788AA3;fontColor=default;" edge="1" parent="1" source="jy5N7lRZQxkDlx1HYXgy-18">
          <mxGeometry relative="1" as="geometry">
            <mxPoint x="410" y="1350" as="targetPoint" />
          </mxGeometry>
        </mxCell>
        <mxCell id="jy5N7lRZQxkDlx1HYXgy-18" value="DISPLAY Invalid options,&lt;br&gt;invalid_count" style="rounded=0;whiteSpace=wrap;html=1;labelBackgroundColor=none;fillColor=#B2C9AB;strokeColor=#788AA3;fontColor=#46495D;" vertex="1" parent="1">
          <mxGeometry x="350" y="1210" width="120" height="60" as="geometry" />
        </mxCell>
        <mxCell id="jy5N7lRZQxkDlx1HYXgy-19" value="END" style="ellipse;whiteSpace=wrap;html=1;labelBackgroundColor=none;fillColor=#B2C9AB;strokeColor=#788AA3;fontColor=#46495D;" vertex="1" parent="1">
          <mxGeometry x="350" y="1350" width="120" height="80" as="geometry" />
        </mxCell>
        <mxCell id="jy5N7lRZQxkDlx1HYXgy-30" value="TRUE" style="text;html=1;align=center;verticalAlign=middle;resizable=0;points=[];autosize=1;strokeColor=none;fillColor=none;labelBackgroundColor=none;fontColor=#46495D;" vertex="1" parent="1">
          <mxGeometry x="190" y="745" width="60" height="30" as="geometry" />
        </mxCell>
        <mxCell id="jy5N7lRZQxkDlx1HYXgy-32" value="False" style="text;html=1;align=center;verticalAlign=middle;resizable=0;points=[];autosize=1;strokeColor=none;fillColor=none;labelBackgroundColor=none;fontColor=#46495D;" vertex="1" parent="1">
          <mxGeometry x="275" y="615" width="50" height="30" as="geometry" />
        </mxCell>
        <mxCell id="jy5N7lRZQxkDlx1HYXgy-34" value="False" style="text;html=1;align=center;verticalAlign=middle;resizable=0;points=[];autosize=1;strokeColor=none;fillColor=none;labelBackgroundColor=none;fontColor=#46495D;" vertex="1" parent="1">
          <mxGeometry x="490" y="615" width="50" height="30" as="geometry" />
        </mxCell>
        <mxCell id="jy5N7lRZQxkDlx1HYXgy-37" value="True" style="text;html=1;align=center;verticalAlign=middle;resizable=0;points=[];autosize=1;strokeColor=none;fillColor=none;labelBackgroundColor=none;fontColor=#46495D;" vertex="1" parent="1">
          <mxGeometry x="415" y="735" width="50" height="30" as="geometry" />
        </mxCell>
        <mxCell id="jy5N7lRZQxkDlx1HYXgy-38" value="True" style="text;html=1;align=center;verticalAlign=middle;resizable=0;points=[];autosize=1;strokeColor=none;fillColor=none;labelBackgroundColor=none;fontColor=#46495D;" vertex="1" parent="1">
          <mxGeometry x="615" y="735" width="50" height="30" as="geometry" />
        </mxCell>
        <mxCell id="jy5N7lRZQxkDlx1HYXgy-52" value="" style="edgeStyle=orthogonalEdgeStyle;rounded=0;orthogonalLoop=1;jettySize=auto;html=1;entryX=1;entryY=0.5;entryDx=0;entryDy=0;labelBackgroundColor=none;strokeColor=#788AA3;fontColor=default;" edge="1" parent="1" source="jy5N7lRZQxkDlx1HYXgy-39" target="jy5N7lRZQxkDlx1HYXgy-12">
          <mxGeometry relative="1" as="geometry">
            <mxPoint x="490" y="920" as="targetPoint" />
          </mxGeometry>
        </mxCell>
        <mxCell id="jy5N7lRZQxkDlx1HYXgy-39" value="DISPLAY not a valid option increment invalid_count" style="rounded=0;whiteSpace=wrap;html=1;labelBackgroundColor=none;fillColor=#B2C9AB;strokeColor=#788AA3;fontColor=#46495D;" vertex="1" parent="1">
          <mxGeometry x="570" y="890" width="120" height="60" as="geometry" />
        </mxCell>
        <mxCell id="jy5N7lRZQxkDlx1HYXgy-42" value="FALSE" style="text;html=1;align=center;verticalAlign=middle;resizable=0;points=[];autosize=1;strokeColor=none;fillColor=none;labelBackgroundColor=none;fontColor=#46495D;" vertex="1" parent="1">
          <mxGeometry x="770" y="790" width="60" height="30" as="geometry" />
        </mxCell>
        <mxCell id="jy5N7lRZQxkDlx1HYXgy-49" value="" style="endArrow=classic;html=1;rounded=0;entryX=1;entryY=0.25;entryDx=0;entryDy=0;exitX=0;exitY=0.5;exitDx=0;exitDy=0;labelBackgroundColor=none;strokeColor=#788AA3;fontColor=default;" edge="1" parent="1" source="jy5N7lRZQxkDlx1HYXgy-11" target="jy5N7lRZQxkDlx1HYXgy-12">
          <mxGeometry width="50" height="50" relative="1" as="geometry">
            <mxPoint x="500" y="900" as="sourcePoint" />
            <mxPoint x="550" y="850" as="targetPoint" />
            <Array as="points">
              <mxPoint x="500" y="880" />
            </Array>
          </mxGeometry>
        </mxCell>
        <mxCell id="jy5N7lRZQxkDlx1HYXgy-57" value="TRUE" style="text;html=1;align=center;verticalAlign=middle;resizable=0;points=[];autosize=1;strokeColor=none;fillColor=none;labelBackgroundColor=none;fontColor=#46495D;" vertex="1" parent="1">
          <mxGeometry x="90" y="1005" width="60" height="30" as="geometry" />
        </mxCell>
        <mxCell id="jy5N7lRZQxkDlx1HYXgy-65" value="FALSE" style="text;html=1;align=center;verticalAlign=middle;resizable=0;points=[];autosize=1;strokeColor=none;fillColor=none;labelBackgroundColor=none;fontColor=#46495D;" vertex="1" parent="1">
          <mxGeometry x="190" y="1075" width="60" height="30" as="geometry" />
        </mxCell>
      </root>
    </mxGraphModel>
  </diagram>
</mxfile>
